<?xml version="1.0" standalone="no"?>
<!DOCTYPE svg PUBLIC "-//W3C//DTD SVG 20010904//EN"
 "http://www.w3.org/TR/2001/REC-SVG-20010904/DTD/svg10.dtd">
<svg version="1.0" xmlns="http://www.w3.org/2000/svg"
 width="512.000000pt" height="512.000000pt" viewBox="0 0 512.000000 512.000000"
 preserveAspectRatio="xMidYMid meet">

<g transform="translate(0.000000,512.000000) scale(0.100000,-0.100000)"
fill="#000000" stroke="none">
<path d="M1385 5110 c-224 -45 -403 -206 -476 -425 l-24 -70 -3 -681 c-3 -679
-3 -680 18 -707 27 -34 78 -37 106 -6 18 20 19 50 24 698 5 646 6 678 26 731
58 159 185 272 343 306 98 20 2204 20 2302 0 119 -26 219 -93 287 -196 78
-115 75 -85 82 -835 5 -491 10 -676 19 -692 13 -26 50 -38 87 -29 51 13 52 15
44 746 -6 667 -7 676 -29 740 -66 188 -199 324 -386 395 l-80 30 -1150 2
c-632 0 -1168 -3 -1190 -7z"/>
<path d="M1855 4340 c-33 -13 -45 -34 -52 -89 l-6 -51 -48 0 c-39 0 -51 -4
-68 -26 -47 -60 -3 -124 83 -124 33 0 36 -2 36 -29 0 -93 71 -144 128 -91 17
16 22 32 22 70 0 50 0 50 34 50 50 0 92 18 105 46 15 35 14 47 -9 77 -17 21
-31 27 -73 29 l-52 3 -3 51 c-4 69 -46 105 -97 84z"/>
<path d="M3215 4340 c-33 -13 -44 -32 -47 -85 l-3 -50 -52 -3 c-42 -2 -56 -8
-73 -29 -48 -61 1 -123 96 -123 34 0 34 0 34 -50 0 -38 5 -54 22 -70 57 -53
128 -2 128 91 0 26 3 29 35 29 46 0 80 17 94 47 16 34 14 47 -10 77 -17 22
-29 26 -68 26 l-48 0 -6 52 c-9 71 -52 109 -102 88z"/>
<path d="M1855 3310 c-33 -13 -45 -34 -52 -89 l-6 -51 -48 0 c-39 0 -51 -4
-68 -26 -47 -60 -3 -124 83 -124 33 0 36 -2 36 -29 0 -70 31 -111 84 -111 42
0 66 32 66 90 l0 50 40 0 c66 0 110 34 110 84 0 34 -37 60 -91 66 l-54 5 -3
51 c-4 69 -46 105 -97 84z"/>
<path d="M3215 3310 c-33 -13 -44 -32 -47 -85 l-3 -50 -54 -5 c-54 -6 -91 -32
-91 -66 0 -50 44 -84 110 -84 l40 0 0 -50 c0 -58 24 -90 66 -90 53 0 84 41 84
111 0 27 3 29 36 29 86 0 130 64 83 124 -17 22 -29 26 -68 26 l-48 0 -6 52
c-9 71 -52 109 -102 88z"/>
<path d="M441 2990 c-49 -12 -101 -68 -112 -121 -11 -61 -11 -205 2 -259 14
-64 59 -106 125 -120 l53 -11 3 -507 3 -507 26 -55 c40 -87 121 -153 201 -166
l36 -6 4 -107 c3 -99 5 -111 33 -156 22 -36 45 -57 84 -77 49 -26 62 -28 162
-28 l109 0 0 -360 0 -360 -64 0 c-80 0 -116 -23 -116 -75 0 -24 7 -39 26 -54
26 -20 37 -21 423 -21 309 1 400 3 413 14 39 30 40 92 0 122 -10 8 -45 13 -84
14 l-68 0 0 360 0 360 850 0 850 0 0 -360 0 -360 -68 0 c-55 0 -73 -4 -90 -20
-30 -28 -30 -82 0 -110 21 -19 33 -20 419 -20 386 0 397 1 423 21 36 28 36 80
0 108 -21 16 -41 21 -90 21 l-64 0 0 360 0 360 109 0 c100 0 113 2 162 28 39
20 62 41 84 77 28 45 30 57 33 156 l4 107 36 6 c80 13 161 79 201 166 l26 55
3 506 3 507 56 7 c45 5 63 14 95 44 46 43 57 81 58 208 0 162 -35 230 -130
252 -62 14 -983 15 -1049 0 -38 -8 -58 -20 -85 -49 -41 -46 -51 -101 -44 -250
7 -135 40 -184 141 -205 l27 -5 0 -164 0 -165 -57 30 c-32 16 -82 34 -112 39
-73 13 -1809 13 -1882 0 -30 -5 -80 -23 -111 -39 l-58 -30 0 164 0 164 54 11
c43 9 62 19 90 50 41 46 51 101 44 249 -5 110 -19 142 -76 181 l-36 25 -520 2
c-287 1 -536 -2 -555 -7z m1037 -247 l3 -103 -501 0 -500 0 0 105 0 105 498
-2 497 -3 3 -102z m3162 -8 l0 -105 -497 2 -498 3 -3 103 -3 102 501 0 500 0
0 -105z m-3352 -802 l-3 -548 -262 0 c-249 0 -263 1 -289 21 -15 11 -37 33
-48 48 -20 27 -21 40 -24 527 l-3 499 316 0 315 0 -2 -547z m3150 48 c-3 -487
-4 -500 -24 -527 -11 -15 -33 -37 -48 -48 -26 -20 -40 -21 -289 -21 l-262 0
-3 548 -2 547 315 0 316 0 -3 -499z m-912 72 c52 -28 111 -95 124 -142 5 -20
10 -147 10 -283 l0 -248 -1110 0 -1110 0 0 248 c0 136 5 263 10 283 18 66 93
136 170 160 14 4 439 7 945 6 l920 -2 41 -22z m644 -905 c0 -70 -3 -85 -22
-105 l-21 -23 -1576 0 -1575 0 -23 22 c-20 19 -23 31 -23 105 l0 83 1620 0
1620 0 0 -82z m-2620 -638 l0 -360 -115 0 -115 0 0 360 0 360 115 0 115 0 0
-360z m2230 0 l0 -360 -115 0 -115 0 0 360 0 360 115 0 115 0 0 -360z"/>
</g>
</svg>
